<svg width="32" height="32" viewBox="0 0 32 32" fill="none" xmlns="http://www.w3.org/2000/svg">
  <!-- Background circle -->
  <circle cx="16" cy="16" r="16" fill="#3b82f6"/>
  
  <!-- Heart -->
  <path d="M16 24C16 24 8 18 8 12C8 9.5 9.5 8 12 8C13.5 8 14.5 8.5 16 10C17.5 8.5 18.5 8 20 8C22.5 8 24 9.5 24 12C24 18 16 24 16 24Z" fill="white"/>
  
  <!-- Sparkle -->
  <path d="M22 6L23 8L25 9L23 10L22 12L21 10L19 9L21 8L22 6Z" fill="#fbbf24"/>
  <path d="M10 22L11 24L13 25L11 26L10 28L9 26L7 25L9 24L10 22Z" fill="#fbbf24"/>
</svg>
